<svg width="26" height="26" viewBox="0 0 26 26" fill="none" xmlns="http://www.w3.org/2000/svg">
<path fill-rule="evenodd" clip-rule="evenodd" d="M19.9483 6.9485L16.8847 3.88483C16.4784 3.47858 15.927 3.25 15.3528 3.25H7.58317C6.38609 3.25 5.4165 4.21958 5.4165 5.41667V20.5833C5.4165 21.7804 6.38609 22.75 7.58317 22.75H18.4165C19.6136 22.75 20.5832 21.7804 20.5832 20.5833V8.48033C20.5832 7.90617 20.3546 7.35475 19.9483 6.9485Z" fill="#B30B00" stroke="#B30B00" stroke-width="2" stroke-linecap="round" stroke-linejoin="round"/>
<path fill-rule="evenodd" clip-rule="evenodd" d="M20.5832 8.66667H16.2498C15.6518 8.66667 15.1665 8.18133 15.1665 7.58333V3.25" fill="#E9ECEF"/>
<path d="M20.5832 8.66667H16.2498C15.6518 8.66667 15.1665 8.18133 15.1665 7.58333V3.25" stroke="#B30B00" stroke-width="2" stroke-linecap="round" stroke-linejoin="round"/>
<path d="M9.66496 16.1281C9.66434 16.1291 9.66373 16.13 9.66311 16.131C9.5298 16.3371 9.50032 16.5512 9.60571 16.7667L9.66496 16.1281ZM9.66496 16.1281L9.92012 16.2937L9.66496 16.1281ZM14.0598 14.5188C14.1144 14.5145 14.169 14.5112 14.2237 14.5087V14.836V14.8368V14.9649C14.1408 14.8722 14.0615 14.7763 13.9861 14.6773L13.8763 14.5332L14.0598 14.5188ZM15.916 15.1592C15.9148 15.1786 15.9125 15.1985 15.9091 15.2189C15.9122 15.1991 15.9145 15.1792 15.916 15.1592ZM13.7619 14.3795L13.8669 14.5274L13.6835 14.5481C13.6395 14.553 13.5956 14.5583 13.5517 14.5638L13.846 14.5201L13.5598 14.0841C13.5374 14.05 13.5152 14.0158 13.4933 13.9814C13.5796 14.1162 13.6692 14.2489 13.7619 14.3795ZM12.0504 14.8576L12.1907 14.8249C12.0774 14.8544 11.9646 14.8857 11.8522 14.9189L11.7862 14.9383L11.8663 14.8198L11.7805 14.8589L11.788 14.8454C11.878 14.6843 11.9655 14.5218 12.0504 14.358V14.4369V14.4378V14.8576ZM9.67009 16.8746C9.65232 16.8531 9.63686 16.8297 9.62406 16.8047C9.64009 16.8337 9.65522 16.8548 9.66518 16.8681L9.67009 16.8746ZM10.9266 15.6146L10.6504 15.4279C10.5861 15.5231 10.5193 15.6167 10.4503 15.7086C10.4502 15.7086 10.4502 15.7087 10.4502 15.7087C10.3917 15.7865 10.3316 15.863 10.2699 15.9383C10.209 16.0113 10.1529 16.0737 10.1021 16.1264C10.0788 16.1482 10.0573 16.1697 10.0376 16.1909L10.9266 15.6146ZM12.5233 13.3726C12.5138 13.3941 12.5042 13.4156 12.4945 13.4371C12.5832 13.2388 12.6683 13.0388 12.7497 12.8372L12.8014 12.709L12.8612 12.8364C12.923 12.968 12.9877 13.0982 13.0551 13.227L12.7988 12.7524L12.5233 13.3726ZM12.8514 12.5762L12.8021 12.7058L12.7455 12.5777C12.6716 12.4104 12.6053 12.2401 12.5468 12.0671H12.7889H12.7898H13.0327C12.9784 12.2315 12.9177 12.4018 12.8514 12.5762ZM13.296 11.0538C13.2779 11.1628 13.254 11.2791 13.2247 11.4015C13.2513 11.288 13.2747 11.1738 13.2949 11.0589L13.2949 11.0589L13.2954 11.0556C13.2985 11.0372 13.3014 11.019 13.3041 11.0009C13.3015 11.0183 13.2988 11.036 13.296 11.0538ZM13.3336 10.5769C13.3345 10.5987 13.3348 10.6211 13.3346 10.6442C13.3347 10.6234 13.3344 10.6031 13.3337 10.5832C13.3337 10.5808 13.3336 10.5785 13.3336 10.5761C13.3336 10.5764 13.3336 10.5767 13.3336 10.5769ZM13.2877 10.3078L13.2863 10.3038C13.2987 10.337 13.3087 10.3738 13.3163 10.4139C13.309 10.378 13.2995 10.3426 13.2877 10.3078Z" stroke="#E9ECEF" stroke-width="0.666667"/>
</svg>
