<svg width="179" height="36" viewBox="0 0 179 36" fill="none" xmlns="http://www.w3.org/2000/svg">
<path d="M34.7479 0L0 10.8L10.6435 22.6957L34.7479 0Z" fill="#4973FA"/>
<path d="M0.000190735 36.0002L34.748 25.2002L24.1046 13.3046L0.000190735 36.0002Z" fill="#4973FA"/>
<path d="M51.5539 18.299C51.9439 18.338 52.3209 18.429 52.6849 18.572C53.0619 18.715 53.3934 18.91 53.6794 19.157C53.9784 19.404 54.2189 19.703 54.4009 20.054C54.5829 20.392 54.6739 20.782 54.6739 21.224C54.6739 21.783 54.5569 22.29 54.3229 22.745C54.0889 23.187 53.7704 23.564 53.3674 23.876C52.9774 24.175 52.5224 24.4025 52.0024 24.5585C51.4954 24.7275 50.9559 24.812 50.3839 24.812C49.8249 24.812 49.2854 24.7275 48.7654 24.5585C48.2454 24.4025 47.7839 24.175 47.3809 23.876C46.9909 23.564 46.6789 23.187 46.4449 22.745C46.2109 22.29 46.0939 21.783 46.0939 21.224H49.0189C49.0189 21.666 49.1619 21.965 49.4479 22.121C49.7469 22.277 50.0589 22.355 50.3839 22.355C50.7089 22.355 51.0144 22.2705 51.3004 22.1015C51.5994 21.9325 51.7489 21.679 51.7489 21.341C51.7489 21.094 51.6059 20.873 51.3199 20.678C51.0339 20.483 50.6699 20.353 50.2279 20.288C49.7209 20.223 49.2204 20.0995 48.7264 19.9175C48.2454 19.7355 47.8164 19.508 47.4394 19.235C47.0754 18.962 46.7764 18.65 46.5424 18.299C46.3214 17.935 46.2109 17.545 46.2109 17.129C46.2109 16.596 46.3214 16.115 46.5424 15.686C46.7634 15.257 47.0624 14.893 47.4394 14.594C47.8294 14.295 48.2779 14.0675 48.7849 13.9115C49.2919 13.7425 49.8249 13.658 50.3839 13.658C50.9559 13.658 51.4889 13.7425 51.9829 13.9115C52.4899 14.0675 52.9319 14.3015 53.3089 14.6135C53.6989 14.9125 54.0044 15.283 54.2254 15.725C54.4464 16.167 54.5569 16.674 54.5569 17.246H51.6319C51.6319 17.025 51.5929 16.843 51.5149 16.7C51.4499 16.544 51.3589 16.427 51.2419 16.349C51.1249 16.258 50.9884 16.1995 50.8324 16.1735C50.6894 16.1345 50.5399 16.115 50.3839 16.115C50.0589 16.115 49.7664 16.1865 49.5064 16.3295C49.2594 16.4595 49.1359 16.7 49.1359 17.051C49.1359 17.207 49.2074 17.3565 49.3504 17.4995C49.4934 17.6295 49.6819 17.753 49.9159 17.87C50.1499 17.974 50.4099 18.065 50.6959 18.143C50.9819 18.208 51.2679 18.26 51.5539 18.299ZM60.6232 10.46V13.97H63.5482V16.466H60.6232V19.235C60.6232 19.638 60.7012 20.0215 60.8572 20.3855C61.0132 20.7365 61.2212 21.042 61.4812 21.302C61.7412 21.562 62.0467 21.77 62.3977 21.926C62.7617 22.082 63.1452 22.16 63.5482 22.16V24.812H63.1582C62.3522 24.812 61.6112 24.669 60.9352 24.383C60.2722 24.084 59.7002 23.681 59.2192 23.174C58.7382 22.667 58.3612 22.0755 58.0882 21.3995C57.8282 20.7235 57.6982 20.002 57.6982 19.235V10.46H60.6232ZM69.59 13.97V19.235C69.59 19.638 69.6355 20.0215 69.7265 20.3855C69.8305 20.7365 69.98 21.042 70.175 21.302C70.383 21.562 70.6365 21.77 70.9355 21.926C71.2475 22.082 71.605 22.16 72.008 22.16C72.411 22.16 72.762 22.082 73.061 21.926C73.373 21.77 73.6265 21.562 73.8215 21.302C74.0295 21.042 74.179 20.7365 74.27 20.3855C74.374 20.0215 74.426 19.638 74.426 19.235V13.97H77.351V19.235C77.351 20.002 77.221 20.7235 76.961 21.3995C76.714 22.0755 76.3565 22.667 75.8885 23.174C75.4205 23.681 74.855 24.084 74.192 24.383C73.542 24.669 72.814 24.812 72.008 24.812C71.202 24.812 70.4675 24.669 69.8045 24.383C69.1545 24.084 68.5955 23.681 68.1275 23.174C67.6595 22.667 67.2955 22.0755 67.0355 21.3995C66.7885 20.7235 66.665 20.002 66.665 19.235V13.97H69.59ZM91.7556 10.46V24.5H89.0256V23.252C88.6746 23.733 88.2326 24.1165 87.6996 24.4025C87.1666 24.6755 86.5881 24.812 85.9641 24.812C85.1711 24.812 84.4171 24.669 83.7021 24.383C83.0001 24.084 82.3891 23.681 81.8691 23.174C81.3491 22.667 80.9331 22.0755 80.6211 21.3995C80.3221 20.7235 80.1726 20.002 80.1726 19.235C80.1726 18.468 80.3221 17.7465 80.6211 17.0705C80.9331 16.3945 81.3491 15.803 81.8691 15.296C82.3891 14.789 83.0001 14.3925 83.7021 14.1065C84.4041 13.8075 85.1516 13.658 85.9446 13.658C86.5036 13.658 87.0236 13.7555 87.5046 13.9505C87.9986 14.1325 88.4406 14.3925 88.8306 14.7305V10.46H91.7556ZM83.0976 19.235C83.0976 19.638 83.1756 20.0215 83.3316 20.3855C83.4876 20.7365 83.6956 21.042 83.9556 21.302C84.2156 21.562 84.5211 21.77 84.8721 21.926C85.2361 22.082 85.6196 22.16 86.0226 22.16C86.4256 22.16 86.8026 22.082 87.1536 21.926C87.5176 21.77 87.8296 21.562 88.0896 21.302C88.3496 21.042 88.5576 20.7365 88.7136 20.3855C88.8696 20.0215 88.9476 19.638 88.9476 19.235C88.9476 18.832 88.8696 18.455 88.7136 18.104C88.5576 17.74 88.3496 17.428 88.0896 17.168C87.8296 16.908 87.5176 16.7 87.1536 16.544C86.8026 16.388 86.4256 16.31 86.0226 16.31C85.6196 16.31 85.2361 16.388 84.8721 16.544C84.5211 16.7 84.2156 16.908 83.9556 17.168C83.6956 17.428 83.4876 17.74 83.3316 18.104C83.1756 18.455 83.0976 18.832 83.0976 19.235ZM97.5678 13.97L100.298 20.0345L103.047 13.97H106.226L99.8298 28.01H96.5733L98.7183 23.252L94.3893 13.97H97.5678ZM120.313 13.658C121.119 13.658 121.873 13.8075 122.575 14.1065C123.277 14.3925 123.888 14.789 124.408 15.296C124.928 15.803 125.338 16.3945 125.637 17.0705C125.949 17.7465 126.105 18.468 126.105 19.235V23.3105C126.105 24.0775 125.955 24.799 125.656 25.475C125.357 26.151 124.948 26.7425 124.428 27.2495C123.908 27.7565 123.29 28.153 122.575 28.439C121.873 28.738 121.119 28.8875 120.313 28.8875C119.689 28.8875 119.085 28.79 118.5 28.595C117.915 28.413 117.382 28.153 116.901 27.815C116.42 27.477 115.997 27.0675 115.633 26.5865C115.282 26.1185 115.016 25.5985 114.834 25.0265H118.032C118.292 25.4035 118.617 25.696 119.007 25.904C119.41 26.125 119.845 26.2355 120.313 26.2355C120.703 26.2355 121.067 26.164 121.405 26.021C121.743 25.878 122.036 25.6765 122.283 25.4165C122.543 25.1695 122.751 24.877 122.907 24.539C123.063 24.201 123.147 23.837 123.16 23.447V23.408C122.822 23.837 122.406 24.1815 121.912 24.4415C121.431 24.6885 120.898 24.812 120.313 24.812C119.52 24.812 118.766 24.669 118.051 24.383C117.349 24.084 116.738 23.681 116.218 23.174C115.698 22.667 115.282 22.0755 114.97 21.3995C114.671 20.7235 114.522 20.002 114.522 19.235C114.522 18.468 114.671 17.7465 114.97 17.0705C115.282 16.3945 115.698 15.803 116.218 15.296C116.738 14.789 117.349 14.3925 118.051 14.1065C118.766 13.8075 119.52 13.658 120.313 13.658ZM117.447 19.235C117.447 19.638 117.525 20.0215 117.681 20.3855C117.837 20.7365 118.045 21.042 118.305 21.302C118.565 21.562 118.87 21.77 119.221 21.926C119.585 22.082 119.969 22.16 120.372 22.16C120.775 22.16 121.152 22.082 121.503 21.926C121.867 21.77 122.179 21.562 122.439 21.302C122.699 21.042 122.907 20.7365 123.063 20.3855C123.219 20.0215 123.297 19.638 123.297 19.235C123.297 18.832 123.219 18.455 123.063 18.104C122.907 17.74 122.699 17.428 122.439 17.168C122.179 16.908 121.867 16.7 121.503 16.544C121.152 16.388 120.775 16.31 120.372 16.31C119.969 16.31 119.585 16.388 119.221 16.544C118.87 16.7 118.565 16.908 118.305 17.168C118.045 17.428 117.837 17.74 117.681 18.104C117.525 18.455 117.447 18.832 117.447 19.235ZM129.423 19.235C129.423 18.468 129.553 17.7465 129.813 17.0705C130.086 16.3945 130.463 15.803 130.944 15.296C131.425 14.789 131.997 14.3925 132.66 14.1065C133.336 13.8075 134.077 13.658 134.883 13.658H135.273V16.31C134.87 16.31 134.487 16.388 134.123 16.544C133.772 16.7 133.466 16.908 133.206 17.168C132.946 17.428 132.738 17.74 132.582 18.104C132.426 18.455 132.348 18.832 132.348 19.235V24.5H129.423V19.235ZM149.144 19.235C149.144 20.002 148.988 20.7235 148.676 21.3995C148.377 22.0755 147.961 22.667 147.428 23.174C146.908 23.681 146.297 24.084 145.595 24.383C144.893 24.669 144.139 24.812 143.333 24.812C142.527 24.812 141.773 24.669 141.071 24.383C140.369 24.084 139.752 23.681 139.219 23.174C138.699 22.667 138.283 22.0755 137.971 21.3995C137.672 20.7235 137.522 20.002 137.522 19.235C137.522 18.468 137.672 17.7465 137.971 17.0705C138.283 16.3945 138.699 15.803 139.219 15.296C139.752 14.789 140.369 14.3925 141.071 14.1065C141.773 13.8075 142.527 13.658 143.333 13.658C144.139 13.658 144.893 13.8075 145.595 14.1065C146.297 14.3925 146.908 14.789 147.428 15.296C147.961 15.803 148.377 16.3945 148.676 17.0705C148.988 17.7465 149.144 18.468 149.144 19.235ZM146.219 19.235C146.219 18.832 146.141 18.455 145.985 18.104C145.842 17.74 145.641 17.428 145.381 17.168C145.121 16.908 144.815 16.7 144.464 16.544C144.113 16.388 143.736 16.31 143.333 16.31C142.93 16.31 142.553 16.388 142.202 16.544C141.851 16.7 141.546 16.908 141.286 17.168C141.026 17.428 140.818 17.74 140.662 18.104C140.519 18.455 140.447 18.832 140.447 19.235C140.447 19.638 140.519 20.0215 140.662 20.3855C140.818 20.7365 141.026 21.042 141.286 21.302C141.546 21.562 141.851 21.77 142.202 21.926C142.553 22.082 142.93 22.16 143.333 22.16C143.736 22.16 144.113 22.082 144.464 21.926C144.815 21.77 145.121 21.562 145.381 21.302C145.641 21.042 145.842 20.7365 145.985 20.3855C146.141 20.0215 146.219 19.638 146.219 19.235ZM154.892 13.97V19.235C154.892 19.638 154.937 20.0215 155.028 20.3855C155.132 20.7365 155.282 21.042 155.477 21.302C155.685 21.562 155.938 21.77 156.237 21.926C156.549 22.082 156.907 22.16 157.31 22.16C157.713 22.16 158.064 22.082 158.363 21.926C158.675 21.77 158.928 21.562 159.123 21.302C159.331 21.042 159.481 20.7365 159.572 20.3855C159.676 20.0215 159.728 19.638 159.728 19.235V13.97H162.653V19.235C162.653 20.002 162.523 20.7235 162.263 21.3995C162.016 22.0755 161.658 22.667 161.19 23.174C160.722 23.681 160.157 24.084 159.494 24.383C158.844 24.669 158.116 24.812 157.31 24.812C156.504 24.812 155.769 24.669 155.106 24.383C154.456 24.084 153.897 23.681 153.429 23.174C152.961 22.667 152.597 22.0755 152.337 21.3995C152.09 20.7235 151.967 20.002 151.967 19.235V13.97H154.892ZM171.563 13.658C172.369 13.658 173.123 13.8075 173.825 14.1065C174.527 14.3925 175.138 14.789 175.658 15.296C176.178 15.803 176.588 16.3945 176.887 17.0705C177.199 17.7465 177.355 18.468 177.355 19.235C177.355 20.002 177.199 20.7235 176.887 21.3995C176.588 22.0755 176.178 22.667 175.658 23.174C175.138 23.681 174.527 24.084 173.825 24.383C173.123 24.669 172.369 24.812 171.563 24.812C171.004 24.812 170.478 24.708 169.984 24.5C169.503 24.292 169.074 24.006 168.697 23.642V28.01H165.772V19.235C165.772 18.468 165.921 17.7465 166.22 17.0705C166.532 16.3945 166.948 15.803 167.468 15.296C167.988 14.789 168.599 14.3925 169.301 14.1065C170.016 13.8075 170.77 13.658 171.563 13.658ZM171.505 22.16C171.908 22.16 172.285 22.082 172.636 21.926C173 21.77 173.312 21.562 173.572 21.302C173.832 21.042 174.04 20.7365 174.196 20.3855C174.352 20.0215 174.43 19.638 174.43 19.235C174.43 18.832 174.352 18.455 174.196 18.104C174.04 17.74 173.832 17.428 173.572 17.168C173.312 16.908 173 16.7 172.636 16.544C172.285 16.388 171.908 16.31 171.505 16.31C171.102 16.31 170.718 16.388 170.354 16.544C170.003 16.7 169.698 16.908 169.438 17.168C169.178 17.428 168.97 17.74 168.814 18.104C168.658 18.455 168.58 18.832 168.58 19.235C168.58 19.638 168.658 20.0215 168.814 20.3855C168.97 20.7365 169.178 21.042 169.438 21.302C169.698 21.562 170.003 21.77 170.354 21.926C170.718 22.082 171.102 22.16 171.505 22.16Z" fill="#4973FA"/>
</svg>
