<svg width="32" height="32" viewBox="0 0 32 32" fill="none" xmlns="http://www.w3.org/2000/svg">
<rect width="32" height="32" rx="16" fill="#4973FA"/>
<path d="M18.1594 14.6258C19.3271 15.7936 19.3271 17.6869 18.1594 18.8547C16.9916 20.0224 15.0983 20.0224 13.9305 18.8547C12.7627 17.6869 12.7627 15.7936 13.9305 14.6258C15.0983 13.4581 16.9916 13.4581 18.1594 14.6258" stroke="white" stroke-linecap="round" stroke-linejoin="round"/>
<path fill-rule="evenodd" clip-rule="evenodd" d="M22.75 13.75V20.5C22.75 21.3288 22.0788 22 21.25 22H10.75C9.92125 22 9.25 21.3288 9.25 20.5V13.75C9.25 12.9212 9.92125 12.25 10.75 12.25H12.25L13.3465 10.372C13.4807 10.1417 13.7275 10 13.9945 10H17.9725C18.2358 10 18.4795 10.138 18.6153 10.363L19.75 12.25H21.25C22.0788 12.25 22.75 12.9212 22.75 13.75Z" stroke="white" stroke-linecap="round" stroke-linejoin="round"/>
</svg>
